<svg xmlns="http://www.w3.org/2000/svg" xmlns:xlink="http://www.w3.org/1999/xlink" id="Icon_Set" x="0px" y="0px" viewBox="0 0 512 512" style="enable-background:new 0 0 512 512;" xml:space="preserve"><style type="text/css">	.st0{fill:#F0C48A;}	.st1{fill:#FD919E;}	.st2{fill:#4C4372;}	.st3{fill:#D3E6F8;}	.st4{fill:#A4CFF2;}	.st5{fill:#7BABF1;}	.st6{fill:#FFFFFF;}	.st7{fill:#E8677D;}	.st8{fill:none;stroke:#4C4372;stroke-width:12;stroke-linecap:round;stroke-linejoin:round;stroke-miterlimit:10;}</style><g id="Hospital_Bed">	<g>		<g>			<circle class="st0" cx="256" cy="256" r="207"></circle>		</g>	</g>	<g>		<g>			<g>				<path class="st1" d="M268.316,219.785h-17.538c-6.429,0-11.641-5.212-11.641-11.641v-33.866c0-6.429,5.212-11.641,11.641-11.641     h17.538c6.429,0,11.641,5.212,11.641,11.641v33.866C279.957,214.573,274.745,219.785,268.316,219.785z"></path>			</g>			<g>				<path class="st1" d="M348.875,219.785h-17.538c-6.429,0-11.641-5.212-11.641-11.641v-33.866c0-6.429,5.212-11.641,11.641-11.641     h17.538c6.429,0,11.641,5.212,11.641,11.641v33.866C360.516,214.573,355.304,219.785,348.875,219.785z"></path>			</g>		</g>		<g>			<g>				<path class="st2" d="M268.315,225.785h-17.538c-9.728,0-17.641-7.914-17.641-17.641v-33.866c0-9.727,7.914-17.641,17.641-17.641     h17.538c9.728,0,17.642,7.914,17.642,17.641v33.866C285.957,217.871,278.043,225.785,268.315,225.785z M250.778,168.636     c-3.11,0-5.641,2.531-5.641,5.641v33.866c0,3.111,2.531,5.641,5.641,5.641h17.538c3.11,0,5.642-2.531,5.642-5.641v-33.866     c0-3.111-2.531-5.641-5.642-5.641H250.778z"></path>			</g>			<g>				<path class="st2" d="M348.875,225.785h-17.538c-9.728,0-17.642-7.914-17.642-17.641v-33.866c0-9.727,7.914-17.641,17.642-17.641     h17.538c9.728,0,17.641,7.914,17.641,17.641v33.866C366.516,217.871,358.603,225.785,348.875,225.785z M331.337,168.636     c-3.11,0-5.642,2.531-5.642,5.641v33.866c0,3.111,2.531,5.641,5.642,5.641h17.538c3.11,0,5.641-2.531,5.641-5.641v-33.866     c0-3.111-2.53-5.641-5.641-5.641H331.337z"></path>			</g>		</g>		<g>			<g>				<path class="st2" d="M340.024,168.636c-3.313,0-6-2.686-6-6v-21.554h-68.396v21.554c0,3.314-2.687,6-6,6s-6-2.686-6-6v-27.554     c0-3.314,2.687-6,6-6h80.396c3.313,0,6,2.686,6,6v27.554C346.024,165.95,343.338,168.636,340.024,168.636z"></path>			</g>			<g>				<path class="st2" d="M299.826,382.918c-3.313,0-6-2.686-6-6V135.082c0-3.314,2.687-6,6-6s6,2.686,6,6v241.835     C305.826,380.231,303.14,382.918,299.826,382.918z"></path>			</g>			<g>				<path class="st2" d="M323.195,382.918h-46.738c-3.313,0-6-2.686-6-6s2.687-6,6-6h46.738c3.313,0,6,2.686,6,6     S326.509,382.918,323.195,382.918z"></path>			</g>		</g>		<g>			<rect x="154.094" y="276.203" class="st4" width="203.811" height="68.514"></rect>		</g>		<g>			<rect x="154.094" y="276.203" class="st3" width="85.359" height="44.598"></rect>		</g>		<g>			<path class="st2" d="M239.454,326.801h-85.359c-3.313,0-6-2.686-6-6v-44.598c0-3.314,2.687-6,6-6h85.359c3.313,0,6,2.686,6,6    v44.598C245.454,324.115,242.767,326.801,239.454,326.801z M160.094,314.801h73.359v-32.598h-73.359V314.801z"></path>		</g>		<g>			<rect x="154.094" y="320.801" class="st5" width="203.811" height="23.916"></rect>		</g>		<g>			<path class="st3" d="M205.787,242.56h-34.871c-9.29,0-16.822,7.531-16.822,16.822v0c0,9.29,7.531,16.822,16.822,16.822h34.871    c9.29,0,16.822-7.531,16.822-16.822v0C222.608,250.091,215.077,242.56,205.787,242.56z"></path>		</g>		<g>			<rect x="111.697" y="193.383" class="st5" width="42.398" height="183.534"></rect>		</g>		<g>			<rect x="357.906" y="276.203" class="st5" width="42.398" height="100.715"></rect>		</g>		<g>			<path class="st2" d="M154.094,382.918h-42.397c-3.313,0-6-2.686-6-6V193.383c0-3.314,2.687-6,6-6h42.397c3.313,0,6,2.686,6,6    v183.534C160.094,380.231,157.408,382.918,154.094,382.918z M117.697,370.918h30.397V199.383h-30.397V370.918z"></path>		</g>		<g>			<path class="st2" d="M400.303,382.918h-42.397c-3.313,0-6-2.686-6-6V276.203c0-3.314,2.687-6,6-6h42.397c3.313,0,6,2.686,6,6    v100.714C406.303,380.231,403.616,382.918,400.303,382.918z M363.905,370.918h30.397v-88.714h-30.397V370.918z"></path>		</g>		<g>			<path class="st2" d="M357.905,350.717H154.094c-3.313,0-6-2.686-6-6v-68.514c0-3.314,2.687-6,6-6h203.811c3.313,0,6,2.686,6,6    v68.514C363.905,348.031,361.219,350.717,357.905,350.717z M160.094,338.717h191.811v-56.514H160.094V338.717z"></path>		</g>		<g>			<path class="st2" d="M357.905,350.717H154.094c-3.313,0-6-2.686-6-6v-23.916c0-3.314,2.687-6,6-6h203.811c3.313,0,6,2.686,6,6    v23.916C363.905,348.031,361.219,350.717,357.905,350.717z M160.094,338.717h191.811v-11.916H160.094V338.717z"></path>		</g>		<g>			<path class="st2" d="M205.787,282.203h-34.871c-12.584,0-22.822-10.238-22.822-22.822s10.238-22.822,22.822-22.822h34.871    c12.584,0,22.822,10.238,22.822,22.822S218.371,282.203,205.787,282.203z M170.916,248.56c-5.967,0-10.822,4.854-10.822,10.822    s4.854,10.822,10.822,10.822h34.871c5.967,0,10.822-4.854,10.822-10.822s-4.854-10.822-10.822-10.822H170.916z"></path>		</g>	</g></g></svg>