<svg xmlns="http://www.w3.org/2000/svg" xmlns:xlink="http://www.w3.org/1999/xlink" id="Icon_Set" x="0px" y="0px" viewBox="0 0 512 512" style="enable-background:new 0 0 512 512;" xml:space="preserve"><style type="text/css">	.st0{fill:#F0C48A;}	.st1{fill:#FD919E;}	.st2{fill:#4C4372;}	.st3{fill:#D3E6F8;}	.st4{fill:#A4CFF2;}	.st5{fill:#7BABF1;}	.st6{fill:#FFFFFF;}	.st7{fill:#E8677D;}	.st8{fill:none;stroke:#4C4372;stroke-width:12;stroke-linecap:round;stroke-linejoin:round;stroke-miterlimit:10;}</style><g id="Waiting_Period">	<g>		<g>			<circle class="st0" cx="256" cy="256" r="207"></circle>		</g>	</g>	<g>		<g>			<g>				<circle class="st4" cx="223.569" cy="256" r="132.715"></circle>			</g>			<g>				<circle class="st6" cx="223.569" cy="256" r="108.063"></circle>			</g>			<g>				<path class="st3" d="M126.977,275.174c0-59.682,48.382-108.063,108.063-108.063c35.406,0,66.834,17.028,86.544,43.341     c-17.186-36.919-54.608-62.516-98.015-62.516c-59.682,0-108.063,48.382-108.063,108.063c0,24.276,8.005,46.681,21.519,64.722     C130.581,306.88,126.977,291.449,126.977,275.174z"></path>			</g>			<g>				<path class="st2" d="M223.569,394.715c-76.488,0-138.715-62.227-138.715-138.715s62.228-138.715,138.715-138.715     S362.284,179.512,362.284,256S300.057,394.715,223.569,394.715z M223.569,129.285c-69.871,0-126.715,56.844-126.715,126.715     s56.844,126.715,126.715,126.715S350.284,325.871,350.284,256S293.44,129.285,223.569,129.285z"></path>			</g>			<g>				<path class="st2" d="M223.569,370.063c-62.895,0-114.063-51.169-114.063-114.063s51.168-114.063,114.063-114.063     c62.895,0,114.063,51.169,114.063,114.063S286.464,370.063,223.569,370.063z M223.569,153.937     c-56.278,0-102.063,45.785-102.063,102.063s45.785,102.063,102.063,102.063S325.632,312.278,325.632,256     S279.847,153.937,223.569,153.937z"></path>			</g>			<g>				<path class="st2" d="M223.569,262h-54.675c-3.313,0-6-2.686-6-6s2.687-6,6-6h48.675v-70.226c0-3.314,2.687-6,6-6s6,2.686,6,6     V256C229.569,259.314,226.882,262,223.569,262z"></path>			</g>			<g>				<circle class="st5" cx="223.569" cy="256" r="19.174"></circle>			</g>			<g>				<path class="st2" d="M223.569,281.174c-13.881,0-25.174-11.293-25.174-25.174s11.293-25.174,25.174-25.174     s25.174,11.293,25.174,25.174S237.45,281.174,223.569,281.174z M223.569,242.826c-7.264,0-13.174,5.91-13.174,13.174     s5.91,13.174,13.174,13.174s13.174-5.91,13.174-13.174S230.833,242.826,223.569,242.826z"></path>			</g>		</g>		<g>			<path class="st5" d="M379.877,224.75v-44c0-31.737-25.728-57.465-57.465-57.465h0c-31.737,0-57.465,25.728-57.465,57.465v44    h17.945h80.359H379.877z"></path>		</g>		<g>			<path class="st2" d="M379.877,230.75H264.946c-3.313,0-6-2.686-6-6v-44c0-34.995,28.47-63.465,63.465-63.465    s63.466,28.47,63.466,63.465v44C385.877,228.064,383.191,230.75,379.877,230.75z M270.946,218.75h102.931v-38    c0-28.378-23.087-51.465-51.465-51.465c-28.378,0-51.466,23.087-51.466,51.465V218.75z"></path>		</g>		<g>			<path class="st3" d="M373.266,240.419H271.45c-9.741,0-17.638-7.897-17.638-17.638v0c0-9.741,7.897-17.638,17.638-17.638h101.816    c9.741,0,17.638,7.897,17.638,17.638v0C390.904,232.522,383.007,240.419,373.266,240.419z"></path>		</g>		<g>			<path class="st2" d="M373.266,246.419H271.45c-13.034,0-23.638-10.604-23.638-23.638s10.604-23.638,23.638-23.638h101.816    c13.034,0,23.637,10.604,23.637,23.638S386.3,246.419,373.266,246.419z M271.45,211.144c-6.417,0-11.638,5.221-11.638,11.638    s5.221,11.638,11.638,11.638h101.816c6.417,0,11.637-5.221,11.637-11.638s-5.22-11.638-11.637-11.638H271.45z"></path>		</g>		<g>			<path class="st1" d="M421.146,388.715H223.569v-65.559c0-18.493,14.992-33.485,33.485-33.485h130.607    c18.493,0,33.485,14.992,33.485,33.485V388.715z"></path>		</g>		<g>			<path class="st7" d="M387.661,289.672h-20.321c18.493,0,33.485,14.992,33.485,33.485v65.559h20.321v-65.559    C421.147,304.664,406.155,289.672,387.661,289.672z"></path>		</g>		<g>			<path class="st2" d="M421.146,394.715H223.569c-3.313,0-6-2.686-6-6v-65.559c0-21.772,17.713-39.485,39.485-39.485h130.607    c21.772,0,39.485,17.713,39.485,39.485v65.559C427.146,392.029,424.46,394.715,421.146,394.715z M229.569,382.715h185.578    v-59.559c0-15.155-12.33-27.485-27.485-27.485H257.054c-15.155,0-27.485,12.33-27.485,27.485V382.715z"></path>		</g>		<g>			<g>				<path class="st2" d="M263.69,394.715c-3.313,0-6-2.686-6-6v-33.593c0-3.314,2.687-6,6-6s6,2.686,6,6v33.593     C269.69,392.029,267.003,394.715,263.69,394.715z"></path>			</g>			<g>				<path class="st2" d="M381.025,394.715c-3.313,0-6-2.686-6-6v-33.593c0-3.314,2.687-6,6-6s6,2.686,6,6v33.593     C387.025,392.029,384.339,394.715,381.025,394.715z"></path>			</g>		</g>		<g>			<path class="st3" d="M322.339,321.924L322.339,321.924c-12.152,0-22.002-9.851-22.002-22.002v-39.209h44.005v39.209    C344.342,312.073,334.491,321.924,322.339,321.924z"></path>		</g>		<g>			<path class="st2" d="M322.339,327.924c-15.44,0-28.002-12.562-28.002-28.002v-39.209c0-3.314,2.687-6,6-6h44.005    c3.313,0,6,2.686,6,6v39.209C350.342,315.362,337.78,327.924,322.339,327.924z M306.337,266.713v33.209    c0,8.824,7.179,16.002,16.002,16.002s16.002-7.179,16.002-16.002v-33.209H306.337z"></path>		</g>		<g>			<path class="st6" d="M342.411,173.716c-18.318,20.005-53.43,27.799-68.847,30.35c-0.38,2.469-0.578,4.997-0.578,7.572v22.967    c0,27.268,22.105,49.372,49.372,49.372h0c27.268,0,49.372-22.105,49.372-49.372v-22.967c0-2.373-0.178-4.703-0.501-6.986    C366.862,202.423,349.155,192.421,342.411,173.716z"></path>		</g>		<g>			<g>				<path class="st2" d="M300.194,229.122c-3.313,0-6-2.686-6-6v-9.576c0-3.314,2.687-6,6-6s6,2.686,6,6v9.576     C306.194,226.435,303.508,229.122,300.194,229.122z"></path>			</g>			<g>				<path class="st2" d="M344.521,229.122c-3.313,0-6-2.686-6-6v-9.576c0-3.314,2.687-6,6-6s6,2.686,6,6v9.576     C350.521,226.435,347.834,229.122,344.521,229.122z"></path>			</g>		</g>		<g>			<path class="st2" d="M322.358,289.977c-30.533,0-55.373-24.84-55.373-55.372v-22.967c0-2.836,0.218-5.691,0.648-8.485    c0.395-2.564,2.392-4.583,4.951-5.007c13.934-2.306,48.2-9.697,65.402-28.483c1.418-1.549,3.542-2.244,5.604-1.831    c2.06,0.413,3.754,1.872,4.466,3.848c6.058,16.804,22.639,25.962,25.901,27.627c1.74,0.888,2.938,2.568,3.212,4.502    c0.372,2.623,0.561,5.257,0.561,7.829v22.967C377.73,265.137,352.89,289.977,322.358,289.977z M279.054,209.189    c-0.045,0.816-0.068,1.634-0.068,2.449v22.967c0,23.916,19.457,43.372,43.373,43.372s43.372-19.457,43.372-43.372v-22.967    c0-1.062-0.042-2.139-0.124-3.224c-6.292-3.649-17.795-11.644-25.126-24.597C322.515,198.827,296.311,205.95,279.054,209.189z"></path>		</g>	</g></g></svg>